<svg xmlns="http://www.w3.org/2000/svg" version="1.1" xmlns:xlink="http://www.w3.org/1999/xlink" xmlns:svgjs="http://svgjs.dev/svgjs" width="1000" height="750" viewBox="0 0 1000 750"><rect width="1000" height="750" fill="#fbeaab"></rect><g transform="matrix(0.834,0,0,0.834,82.49454545454546,79.88644423031968)"><svg viewBox="0 0 396 280" data-background-color="#fbeaab" preserveAspectRatio="xMidYMid meet" height="707" width="1000" xmlns="http://www.w3.org/2000/svg" xmlns:xlink="http://www.w3.org/1999/xlink"><g id="tight-bounds" transform="matrix(1,0,0,1,0.2400000000000091,0.1398750004418048)"><svg viewBox="0 0 395.52 279.72" height="279.72" width="395.52"><g><svg viewBox="0 0 395.52 279.72" height="279.72" width="395.52"><g><svg viewBox="0 0 395.52 279.72" height="279.72" width="395.52"><g><svg viewBox="0 0 395.52 279.72" height="279.72" width="395.52"><g><svg viewBox="0 0 395.52 279.72" height="279.72" width="395.52"><g transform="matrix(1,0,0,1,81.22880246045696,47.21133399503262)"><svg viewBox="0 0 233.06239507908606 185.2973320099348" height="185.2973320099348" width="233.06239507908606"><g><circle r="82" cx="116.53119753954303" cy="92.6486660049674" fill="#454545" data-fill-palette-color="accent"></circle><svg xmlns="http://www.w3.org/2000/svg" xmlns:xlink="http://www.w3.org/1999/xlink" version="1.1" x="34.95935926186291" y="34.95935926186291" viewBox="24.761856079101562 5 59.5826416015625 90" enable-background="new 0 0 100 100" xml:space="preserve" height="115.37861348620898" width="163.14367655536023" class="icon-o-0" data-fill-palette-color="quaternary" id="o-0"><g fill="#fbeaab" data-fill-palette-color="quaternary"><path d="M73.76 35.603C86.875 48 91.5 66.25 65.633 82.379c3.64-4.928 5.654-9.794 6.096-14.669 0.951-10.516-5.606-19.072-12.835-26.752C48.298 29.7 47.51 18.84 56.413 6.782 54.578 22.641 64.6 26.944 73.76 35.603zM45.288 93.716c6.184-13.053 7.276-20.302-8.197-34.939-4.204-3.977-7.451-8.029-9.71-12.086-2.881 6.435-5.164 20.081 3.244 27.935C36.312 79.938 44.125 83.125 45.288 93.716zM56.709 43.014C48.183 33.954 41.999 21.253 54 5 21.497 17.692 19.625 38.125 39.151 56.597 55.603 72.158 54.75 80.75 48 95 79.875 71.5 68.709 55.764 56.709 43.014z" fill="#fbeaab" data-fill-palette-color="quaternary"></path></g><g display="none" fill="#fbeaab" data-fill-palette-color="quaternary"><path display="inline" d="M54 5C16.75 17.5 14.875 56.5 26.75 70.762c10.558 12.68 15.407 7.949 19.675 20.824" fill="#fbeaab" data-fill-palette-color="quaternary"></path><line display="inline" x1="56.988" y1="5.261" x2="45.528" y2="136.262" fill="#fbeaab" data-fill-palette-color="quaternary"></line><line display="inline" x1="54.131" y1="3.502" x2="42.67" y2="134.502" fill="#fbeaab" data-fill-palette-color="quaternary"></line><path display="inline" d="M42.875 76" fill="#fbeaab" data-fill-palette-color="quaternary"></path></g></svg></g></svg></g><path d="M72.033 83.081V83.081C72.3 82.341 72.713 81.835 73.27 81.562 73.828 81.29 74.467 81.283 75.187 81.544V81.544C75.364 81.608 75.545 81.691 75.73 81.795 75.905 81.903 76.055 82.001 76.178 82.09V82.09C76.026 82.369 75.865 82.681 75.696 83.027 75.533 83.375 75.361 83.798 75.182 84.296V84.296C74.832 85.266 74.562 86.279 74.373 87.336 74.183 88.393 73.982 89.391 73.77 90.328V90.328C74.779 91.285 75.764 92.178 76.724 93.006 77.69 93.836 78.579 94.572 79.392 95.213 80.207 95.848 80.924 96.374 81.544 96.79 82.157 97.204 82.629 97.485 82.96 97.635V97.635C83.234 95.668 83.573 93.702 83.979 91.738 84.376 89.779 84.879 87.75 85.488 85.652V85.652C85.958 85.541 86.449 85.481 86.963 85.474 87.476 85.467 87.992 85.557 88.509 85.744V85.744C88.647 85.793 88.794 85.847 88.952 85.903 89.109 85.96 89.258 86.04 89.398 86.143V86.143C89.152 86.764 88.895 87.423 88.629 88.119 88.363 88.816 88.026 89.727 87.619 90.854V90.854C87.35 91.6 87.114 92.315 86.912 92.997 86.706 93.671 86.512 94.36 86.332 95.065 86.154 95.763 85.988 96.51 85.833 97.306 85.67 98.106 85.497 99.006 85.314 100.006V100.006C84.531 100.901 83.176 101.548 81.247 101.948V101.948C80.575 101.268 79.534 100.285 78.125 98.998 76.709 97.71 74.808 96.035 72.42 93.973V93.973C71.739 94.875 70.935 95.339 70.007 95.367V95.367C69.931 95.207 69.905 94.827 69.929 94.228 69.962 93.626 70.029 92.895 70.132 92.036V92.036C69.375 91.385 68.711 90.823 68.142 90.351 67.574 89.872 67.034 89.44 66.521 89.055 66.011 88.663 65.507 88.296 65.009 87.953 64.504 87.608 63.952 87.25 63.354 86.878V86.878C63.024 87.647 62.578 88.186 62.015 88.494 61.459 88.804 60.866 88.845 60.237 88.618V88.618C60.054 88.552 59.847 88.448 59.617 88.305 59.389 88.156 59.199 88.017 59.046 87.888V87.888C59.275 87.46 59.478 87.041 59.655 86.631 59.826 86.219 60.034 85.675 60.277 85.001V85.001C60.791 83.579 61.233 82.232 61.604 80.959 61.972 79.693 62.291 78.542 62.562 77.506 62.834 76.464 63.061 75.569 63.243 74.82 63.424 74.071 63.585 73.504 63.725 73.117V73.117C63.911 72.6 64.35 72.236 65.04 72.026 65.731 71.816 66.607 71.789 67.67 71.943V71.943C67.351 72.62 67.099 73.173 66.915 73.603 66.737 74.034 66.586 74.421 66.463 74.761V74.761C66.016 75.999 65.669 77.155 65.422 78.228 65.175 79.302 64.946 80.337 64.734 81.334V81.334C64.889 81.538 65.097 81.784 65.356 82.07 65.609 82.354 65.969 82.732 66.435 83.204 66.899 83.682 67.489 84.273 68.206 84.976 68.922 85.679 69.82 86.544 70.9 87.571V87.571C71.079 86.665 71.266 85.822 71.459 85.04 71.652 84.258 71.844 83.605 72.033 83.081ZM115.506 43.417V43.417C114.824 42.607 114.061 41.311 113.216 39.527 112.372 37.744 111.48 35.587 110.542 33.054V33.054C109.073 28.993 107.97 25.507 107.232 22.596 106.493 19.695 106.115 17.266 106.096 15.307V15.307C106.351 15.156 106.699 15.017 107.14 14.892 107.585 14.773 108.039 14.668 108.501 14.58 108.959 14.486 109.389 14.429 109.791 14.409 110.194 14.38 110.477 14.392 110.641 14.445V14.445C110.634 17.336 110.905 20.212 111.454 23.072 112.009 25.927 112.894 28.991 114.109 32.264V32.264C115.162 35.074 116.217 37.517 117.273 39.596 118.33 41.674 119.345 43.291 120.318 44.447V44.447C120.578 44.757 120.739 44.948 120.802 45.023 120.865 45.098 120.936 45.161 121.015 45.212V45.212C120.727 45.4 120.452 45.522 120.191 45.578 119.928 45.645 119.716 45.636 119.555 45.553V45.553C119.442 45.494 119.228 45.446 118.915 45.409 118.602 45.372 118.343 45.362 118.139 45.379V45.379C117.88 45.406 117.499 45.235 116.997 44.866 116.496 44.486 115.999 44.003 115.506 43.417ZM177.54 10.388V10.388C177.358 12.218 177.143 13.892 176.895 15.408 176.649 16.931 176.342 18.35 175.974 19.664 175.613 20.976 175.181 22.204 174.678 23.346 174.184 24.494 173.606 25.603 172.946 26.671V26.671C172.095 28.021 171.158 29.115 170.137 29.953 169.109 30.792 168.019 31.331 166.866 31.569V31.569C166.28 31.691 165.687 31.746 165.087 31.736 164.48 31.726 163.902 31.661 163.35 31.541 162.799 31.42 162.299 31.254 161.849 31.041 161.4 30.828 161.059 30.575 160.828 30.282V30.282C160.77 30.002 160.882 29.723 161.166 29.444V29.444C161.505 29.637 161.781 29.786 161.995 29.891 162.215 29.994 162.424 30.075 162.621 30.134 162.817 30.186 163.017 30.205 163.22 30.191 163.422 30.171 163.653 30.134 163.912 30.08V30.08C165.248 29.803 166.476 29.14 167.596 28.09 168.714 27.033 169.693 25.667 170.534 23.992 171.373 22.31 172.05 20.342 172.564 18.087 173.08 15.84 173.402 13.38 173.531 10.707V10.707C173.322 11.241 173.066 11.895 172.764 12.669 172.455 13.444 172.101 14.222 171.701 15.002 171.3 15.782 170.866 16.501 170.398 17.16 169.937 17.818 169.457 18.298 168.958 18.6V18.6C168.577 18.651 168.166 18.658 167.724 18.621 167.288 18.576 166.865 18.472 166.454 18.308 166.038 18.153 165.655 17.937 165.306 17.661 164.959 17.391 164.694 17.055 164.51 16.652V16.652C164.369 15.97 164.28 15.42 164.243 15.001 164.206 14.582 164.194 14.111 164.206 13.589V13.589C164.233 12.652 164.334 11.578 164.51 10.368 164.686 9.158 164.937 7.951 165.263 6.745 165.588 5.533 165.989 4.382 166.468 3.295 166.939 2.201 167.483 1.31 168.101 0.62V0.62C168.285 0.582 168.52 0.551 168.807 0.527 169.101 0.501 169.411 0.505 169.737 0.537 170.057 0.57 170.374 0.622 170.687 0.692 170.993 0.763 171.274 0.883 171.529 1.051V1.051C171.318 1.336 170.919 2.24 170.331 3.763 169.736 5.281 169.17 7.407 168.634 10.143V10.143C168.572 10.426 168.51 10.83 168.448 11.355 168.386 11.88 168.334 12.432 168.29 13.01 168.251 13.579 168.228 14.136 168.219 14.678 168.21 15.213 168.236 15.634 168.3 15.941V15.941C168.34 16.132 168.396 16.266 168.469 16.344 168.55 16.427 168.619 16.487 168.677 16.525V16.525C169.086 16.369 169.576 15.904 170.148 15.131 170.722 14.365 171.319 13.232 171.94 11.73V11.73C172.331 10.767 172.675 9.821 172.973 8.892 173.271 7.962 173.561 7.027 173.843 6.087 174.125 5.147 174.418 4.179 174.724 3.184 175.037 2.187 175.375 1.16 175.739 0.103V0.103C176.046 0.04 176.384 0.005 176.753 0 177.123 0.002 177.482 0.019 177.831 0.054 178.181 0.095 178.492 0.155 178.764 0.234 179.037 0.313 179.248 0.407 179.399 0.518V0.518C178.992 2.224 178.624 3.883 178.297 5.494 177.969 7.106 177.717 8.737 177.54 10.388ZM245.473 7.724V7.724C245.317 8.15 245.105 8.581 244.837 9.017 244.569 9.453 244.289 9.831 243.997 10.151 243.697 10.475 243.405 10.733 243.123 10.925 242.84 11.117 242.609 11.186 242.428 11.132V11.132C242.181 11.037 242.082 10.818 242.133 10.477V10.477C242.153 10.411 242.212 10.312 242.309 10.181 242.415 10.045 242.528 9.898 242.649 9.737 242.778 9.572 242.896 9.408 243.003 9.243 243.119 9.075 243.198 8.92 243.24 8.78V8.78C243.335 8.46 243.342 8.167 243.261 7.903 243.172 7.644 243 7.476 242.746 7.401V7.401C241.825 7.126 240.953 7.491 240.13 8.495 239.307 9.5 238.563 11.116 237.898 13.345V13.345C237.828 13.579 237.796 13.722 237.802 13.775V13.775C238.297 13.893 238.733 14.005 239.109 14.11 239.493 14.21 239.869 14.315 240.236 14.425V14.425C240.249 14.479 240.235 14.573 240.195 14.707V14.707C240.133 14.914 240.042 15.05 239.921 15.115V15.115C239.359 15.072 238.91 15.043 238.573 15.029 238.242 15.018 237.985 15.025 237.803 15.05 237.623 15.069 237.501 15.113 237.437 15.181 237.38 15.251 237.33 15.356 237.288 15.496V15.496C237.233 15.683 237.185 15.869 237.144 16.053 237.102 16.244 237.04 16.476 236.958 16.75V16.75C236.382 18.678 235.396 20.074 233.997 20.936 232.599 21.797 230.942 22.041 229.026 21.665V21.665C228.712 21.549 228.405 21.36 228.106 21.096 227.813 20.834 227.548 20.53 227.31 20.183 227.079 19.837 226.893 19.473 226.753 19.09 226.618 18.715 226.551 18.354 226.554 18.005V18.005C226.814 17.131 227.247 16.352 227.851 15.667 228.455 14.983 229.165 14.431 229.98 14.013 230.797 13.588 231.692 13.318 232.664 13.201 233.639 13.077 234.644 13.13 235.68 13.36V13.36C235.852 12.786 235.959 12.207 236.002 11.624 236.054 11.036 236.094 10.463 236.123 9.905 236.149 9.353 236.18 8.813 236.214 8.286 236.247 7.758 236.337 7.251 236.483 6.763V6.763C236.668 6.143 236.978 5.567 237.413 5.035 237.847 4.503 238.349 4.039 238.919 3.642 239.486 3.252 240.098 2.955 240.754 2.751 241.418 2.549 242.067 2.467 242.703 2.504V2.504C242.937 2.646 243.218 2.948 243.545 3.409 243.873 3.87 244.181 4.37 244.472 4.907 244.762 5.444 245.004 5.974 245.196 6.497 245.389 7.019 245.482 7.429 245.473 7.724ZM229.398 20.054V20.054C230.015 19.983 230.639 19.806 231.269 19.522 231.894 19.228 232.472 18.863 233.002 18.425 233.534 17.981 234.003 17.481 234.409 16.926 234.808 16.37 235.096 15.794 235.273 15.2V15.2C234.792 15.129 234.226 15.189 233.573 15.38 232.912 15.575 232.267 15.848 231.639 16.198 231.005 16.546 230.448 16.936 229.971 17.368 229.493 17.8 229.195 18.212 229.078 18.606V18.606C228.927 19.113 229.033 19.596 229.398 20.054ZM283.158 44.659V44.659C283.308 44.504 283.506 44.323 283.754 44.117 284.006 43.905 284.354 43.64 284.796 43.322 285.239 42.994 285.784 42.61 286.431 42.171 287.073 41.726 287.857 41.2 288.782 40.592V40.592C288.987 40.451 289.333 40.248 289.821 39.983 290.304 39.723 290.848 39.475 291.455 39.237 292.062 39.01 292.699 38.836 293.367 38.716 294.039 38.591 294.663 38.627 295.238 38.823V38.823C295.47 39.174 295.689 39.724 295.895 40.474 296.1 41.224 296.134 42.016 295.996 42.851V42.851C295.17 42.915 294.406 43.044 293.705 43.239 292.999 43.429 292.306 43.66 291.626 43.933 290.947 44.206 290.265 44.516 289.582 44.863 288.903 45.205 288.175 45.553 287.398 45.907V45.907C286.744 46.204 286.092 46.533 285.443 46.894 284.795 47.255 284.281 47.617 283.903 47.978V47.978C283.604 48.288 283.386 48.504 283.25 48.625 283.114 48.745 283.004 48.765 282.919 48.682V48.682C282.848 48.615 282.752 48.439 282.628 48.155 282.505 47.872 282.425 47.534 282.389 47.14 282.343 46.747 282.367 46.33 282.463 45.89 282.559 45.45 282.79 45.04 283.158 44.659ZM298.95 38.196V38.196C299.052 38.091 299.227 37.96 299.475 37.803V37.803C299.472 37.635 299.525 37.435 299.634 37.202 299.739 36.973 299.859 36.789 299.994 36.649V36.649C300.144 36.493 300.367 36.302 300.664 36.075 300.965 35.853 301.301 35.621 301.671 35.378 302.036 35.13 302.436 34.887 302.87 34.647 303.299 34.413 303.697 34.207 304.063 34.028V34.028C304.273 34.231 304.473 34.535 304.663 34.941 304.857 35.341 305.022 35.782 305.159 36.262 305.295 36.742 305.39 37.216 305.443 37.683 305.495 38.15 305.497 38.544 305.449 38.865V38.865C305.074 38.871 304.57 38.893 303.935 38.928 303.296 38.969 302.652 39.035 302.003 39.125 301.349 39.21 300.745 39.3 300.19 39.393 299.631 39.492 299.25 39.575 299.05 39.643V39.643C298.878 39.409 298.785 39.145 298.77 38.85 298.755 38.554 298.815 38.337 298.95 38.196ZM330.254 99.377V99.377C330.331 99.601 330.383 99.881 330.41 100.218 330.434 100.548 330.427 100.86 330.387 101.153 330.348 101.446 330.288 101.702 330.209 101.921 330.129 102.139 330.033 102.268 329.921 102.306V102.306C328.81 102.179 327.707 102.085 326.612 102.026 325.519 101.974 324.481 101.961 323.496 101.989 322.521 102.021 321.622 102.094 320.799 102.206 319.979 102.325 319.285 102.482 318.718 102.676V102.676C318.079 102.895 317.573 103.146 317.198 103.428 316.828 103.702 316.606 104.032 316.532 104.418V104.418C316.26 104.202 315.991 103.901 315.726 103.513 315.465 103.117 315.277 102.75 315.161 102.414V102.414C314.742 101.189 315.372 100.288 317.052 99.713V99.713C318.343 99.271 320.26 99.096 322.803 99.19V99.19C321.606 99.092 320.445 98.904 319.319 98.627 318.203 98.354 317.187 98.032 316.272 97.661 315.357 97.29 314.572 96.867 313.916 96.392 313.26 95.917 312.797 95.436 312.527 94.947V94.947C312.284 94.087 312.456 93.267 313.042 92.484 313.621 91.704 314.5 91.112 315.68 90.709V90.709C316.951 90.273 318.386 90.087 319.983 90.151 321.572 90.211 323.114 90.459 324.611 90.896 326.104 91.342 327.425 91.924 328.577 92.641 329.723 93.367 330.479 94.187 330.843 95.1V95.1C330.847 95.349 330.797 95.653 330.692 96.013 330.585 96.366 330.44 96.718 330.258 97.067 330.078 97.423 329.877 97.739 329.655 98.014 329.435 98.295 329.226 98.481 329.028 98.571V98.571C328.581 97.715 327.816 96.932 326.733 96.221 325.659 95.514 324.457 94.95 323.128 94.529 321.805 94.106 320.458 93.85 319.088 93.76 317.713 93.678 316.505 93.816 315.464 94.173V94.173C315.029 94.321 314.81 94.573 314.806 94.928V94.928C315.17 95.539 315.991 96.109 317.268 96.635 318.55 97.154 320.435 97.671 322.923 98.188V98.188C323.411 98.279 323.953 98.38 324.551 98.492 325.142 98.606 325.762 98.717 326.411 98.827 327.059 98.936 327.708 99.037 328.359 99.131 329.009 99.225 329.641 99.307 330.254 99.377ZM70.782 190.42V190.42C71.746 190.055 73.043 189.745 74.675 189.492 76.313 189.235 78.092 189.045 80.011 188.921V188.921C79.321 187.455 78.596 185.994 77.836 184.539 77.076 183.085 76.47 181.799 76.017 180.682V180.682C73.224 180.564 70.695 180.584 68.431 180.742 66.176 180.905 64.02 181.178 61.961 181.564V181.564C61.832 180.615 61.92 179.755 62.223 178.984 62.521 178.216 62.97 177.446 63.571 176.675V176.675C64.005 176.719 64.554 176.753 65.218 176.776 65.883 176.8 66.685 176.824 67.625 176.847 68.565 176.871 69.659 176.888 70.907 176.899 72.161 176.908 73.612 176.913 75.258 176.914V176.914C75.298 176.035 75.557 175.363 76.036 174.899V174.899C76.169 174.975 76.365 175.195 76.622 175.559 76.87 175.92 77.166 176.377 77.511 176.932V176.932L78.785 176.963C80.205 176.975 81.396 176.974 82.359 176.96 83.324 176.951 84.254 176.9 85.15 176.806 86.048 176.719 87.029 176.586 88.093 176.406 89.147 176.222 90.487 175.982 92.11 175.687V175.687C92.287 176.723 92.192 177.76 91.827 178.8 91.464 179.846 90.922 180.834 90.201 181.762V181.762C89.849 181.658 89.339 181.56 88.672 181.471 88.011 181.378 87.23 181.302 86.328 181.242 85.424 181.175 84.419 181.117 83.313 181.067 82.197 181.013 81.022 180.948 79.787 180.873V180.873C80.514 182.221 81.231 183.591 81.938 184.984 82.653 186.381 83.256 187.628 83.746 188.723V188.723C85.102 188.686 86.432 188.677 87.736 188.696 89.037 188.71 90.239 188.757 91.342 188.838 92.451 188.916 93.438 189.022 94.301 189.157 95.161 189.285 95.826 189.447 96.294 189.641V189.641C96.355 189.879 96.385 190.214 96.385 190.646 96.378 191.081 96.345 191.533 96.284 192.003 96.224 192.472 96.134 192.912 96.014 193.323 95.894 193.733 95.755 194.035 95.598 194.229V194.229C95.049 193.96 94.388 193.738 93.613 193.563 92.839 193.387 91.972 193.25 91.011 193.152 90.057 193.052 89.038 192.988 87.955 192.959 86.863 192.926 85.75 192.928 84.616 192.963V192.963C84.372 193.577 83.941 194.001 83.322 194.235V194.235C82.886 194.401 82.451 194.461 82.017 194.417V194.417C81.983 194.192 81.935 193.975 81.871 193.768 81.799 193.558 81.732 193.333 81.672 193.095V193.095C80.287 193.174 78.925 193.284 77.586 193.427 76.251 193.56 74.993 193.728 73.811 193.931 72.629 194.133 71.554 194.343 70.586 194.561 69.621 194.785 68.829 195.015 68.211 195.249V195.249C67.983 195.336 67.803 195.411 67.671 195.476 67.53 195.537 67.419 195.598 67.338 195.658V195.658C67.171 195.141 67.12 194.739 67.183 194.455 67.246 194.17 67.341 193.937 67.466 193.755 67.593 193.58 67.727 193.414 67.868 193.256 68.003 193.101 68.077 192.902 68.089 192.659V192.659C68.099 192.469 68.205 192.257 68.407 192.024 68.602 191.794 68.846 191.571 69.137 191.357 69.421 191.144 69.715 190.955 70.016 190.789 70.325 190.619 70.58 190.497 70.782 190.42ZM122.755 257.785V257.785C121.652 256.911 121.041 255.796 120.92 254.441 120.793 253.081 121.177 251.699 122.069 250.294V250.294C122.596 249.466 123.265 248.686 124.076 247.955 124.89 247.219 125.792 246.579 126.781 246.035 127.768 245.482 128.81 245.03 129.907 244.68 131.001 244.335 132.081 244.122 133.148 244.041V244.041C134.82 243.915 136.153 244.168 137.146 244.799V244.799C137.59 245.568 137.776 246.717 137.703 248.247V248.247C137.809 248.314 137.907 248.368 137.996 248.409 138.086 248.449 138.184 248.503 138.29 248.57V248.57C139.383 249.265 139.312 250.585 138.075 252.531V252.531C137.246 253.836 136.248 254.939 135.082 255.84 133.915 256.741 132.65 257.426 131.287 257.897 129.929 258.371 128.52 258.602 127.059 258.589 125.602 258.571 124.168 258.303 122.755 257.785ZM130.556 249.016V249.016C129.901 249.268 129.24 249.574 128.573 249.934 127.907 250.295 127.278 250.687 126.686 251.112 126.101 251.54 125.575 251.978 125.11 252.424 124.654 252.869 124.293 253.3 124.028 253.718V253.718C123.714 254.211 123.497 254.742 123.376 255.308 123.253 255.866 123.274 256.242 123.439 256.437V256.437C124.498 256.822 125.597 256.975 126.735 256.898 127.874 256.821 128.997 256.54 130.105 256.056 131.216 255.566 132.276 254.886 133.283 254.016 134.283 253.142 135.172 252.093 135.949 250.871V250.871C136.289 250.336 136.529 249.894 136.668 249.545 136.801 249.192 136.867 248.855 136.866 248.532V248.532C135.789 248.227 134.701 248.147 133.603 248.291 132.511 248.438 131.495 248.68 130.556 249.016ZM207.182 264.068L205.085 264.183C204.959 264.044 204.834 263.74 204.711 263.273 204.58 262.799 204.505 262.391 204.487 262.051V262.051C205.129 262.064 205.747 262.072 206.34 262.074 206.926 262.077 207.463 262.079 207.951 262.08V262.08C208.279 261.322 208.639 260.57 209.03 259.823 209.422 259.083 209.803 258.399 210.173 257.772 210.543 257.152 210.894 256.623 211.226 256.187 211.557 255.75 211.817 255.467 212.006 255.338V255.338C212.249 255.325 212.564 255.349 212.951 255.411 213.331 255.474 213.723 255.564 214.127 255.681 214.524 255.792 214.886 255.912 215.214 256.04 215.542 256.168 215.769 256.302 215.896 256.442V256.442C215.217 257.414 214.635 258.314 214.151 259.143 213.666 259.965 213.146 260.907 212.591 261.97V261.97C213.084 261.943 213.581 261.902 214.08 261.846 214.579 261.798 215.085 261.735 215.597 261.658V261.658C215.722 261.77 215.828 261.918 215.914 262.101 216.001 262.278 216.049 262.463 216.06 262.658V262.658C214.882 263.169 213.438 263.497 211.73 263.639V263.639C211.183 264.848 210.702 266.047 210.286 267.234 209.87 268.422 209.528 269.564 209.261 270.66 208.987 271.756 208.785 272.789 208.658 273.759 208.522 274.722 208.475 275.582 208.517 276.34V276.34C208.577 277.418 209.017 277.997 209.837 278.077V278.077C210.561 277.933 211.247 277.71 211.893 277.41 212.538 277.102 213.107 276.725 213.599 276.28V276.28C213.757 276.494 213.854 276.674 213.89 276.818V276.818C213.756 277.049 213.52 277.32 213.181 277.632 212.843 277.943 212.473 278.253 212.071 278.561 211.669 278.862 211.279 279.121 210.9 279.337 210.515 279.554 210.225 279.681 210.032 279.72V279.72C209.419 279.726 208.799 279.624 208.174 279.414 207.549 279.204 206.975 278.929 206.454 278.588 205.933 278.247 205.501 277.859 205.156 277.425 204.811 276.991 204.627 276.554 204.602 276.116V276.116C204.57 275.525 204.609 274.78 204.72 273.881 204.83 272.976 205.003 271.99 205.237 270.923 205.471 269.85 205.754 268.729 206.087 267.56 206.413 266.384 206.778 265.22 207.182 264.068ZM284.188 230.023V230.023C285.056 231.281 285.654 232.473 285.982 233.598 286.309 234.732 286.404 235.877 286.267 237.031 286.131 238.185 285.805 239.386 285.29 240.634 284.775 241.883 284.093 243.233 283.241 244.684V244.684C283.332 244.799 283.421 244.923 283.51 245.058 283.598 245.192 283.696 245.328 283.804 245.465V245.465C283.998 245.711 284.222 245.955 284.475 246.199 284.725 246.437 284.99 246.631 285.269 246.784 285.549 246.936 285.831 247.019 286.117 247.033 286.404 247.037 286.682 246.933 286.95 246.722V246.722C287.47 246.313 287.89 245.795 288.212 245.168 288.535 244.542 288.786 243.882 288.967 243.19 289.158 242.498 289.293 241.798 289.372 241.088 289.456 240.384 289.524 239.745 289.577 239.171V239.171C289.906 239.195 290.2 239.229 290.457 239.275V239.275C290.497 241.114 290.305 242.822 289.881 244.399 289.446 245.974 288.849 247.23 288.088 248.166V248.166C286.638 249.061 285.223 249.392 283.842 249.159 282.452 248.925 281.302 248.231 280.392 247.077V247.077C279.767 246.284 279.245 245.391 278.827 244.399 278.399 243.407 278.082 242.375 277.877 241.304 277.677 240.229 277.574 239.148 277.569 238.062 277.565 236.965 277.67 235.929 277.885 234.953 278.095 233.971 278.409 233.081 278.826 232.282 279.247 231.489 279.775 230.842 280.409 230.342V230.342C281.386 229.758 282.645 229.652 284.188 230.023ZM282.951 232.555V232.555C282.492 233.041 282.119 233.676 281.833 234.46 281.547 235.245 281.386 236.121 281.351 237.089 281.316 238.056 281.398 239.083 281.596 240.167 281.8 241.258 282.136 242.336 282.604 243.404V243.404C283.539 241.416 284.071 239.459 284.2 237.53 284.334 235.597 283.918 233.939 282.951 232.555ZM330.782 178.913V178.913C329.742 178.621 328.354 177.963 326.616 176.94 324.878 175.916 322.885 174.603 320.636 173.002V173.002C317.058 170.42 314.122 168.112 311.829 166.078 309.528 164.043 307.81 162.204 306.673 160.56V160.56C306.799 160.292 307.014 159.976 307.319 159.613 307.622 159.257 307.94 158.909 308.274 158.569 308.615 158.23 308.948 157.933 309.274 157.677 309.597 157.428 309.842 157.277 310.009 157.222V157.222C311.665 159.67 313.551 161.943 315.667 164.042 317.776 166.14 320.284 168.219 323.192 170.28V170.28C325.702 172.057 327.997 173.519 330.076 174.667 332.163 175.811 333.951 176.592 335.44 177.01V177.01C335.842 177.123 336.09 177.193 336.184 177.219 336.278 177.246 336.375 177.262 336.474 177.268V177.268C336.335 177.584 336.172 177.842 335.985 178.042 335.805 178.245 335.621 178.36 335.433 178.386V178.386C335.306 178.401 335.098 178.484 334.81 178.634 334.53 178.78 334.306 178.92 334.139 179.054V179.054C333.938 179.229 333.516 179.302 332.873 179.273 332.23 179.244 331.533 179.124 330.782 178.913ZM63.621 136.697C63.621 134.806 65.154 133.274 67.044 133.274 68.934 133.274 70.467 134.806 70.467 136.697 70.467 138.587 68.934 140.119 67.044 140.119 65.154 140.119 63.621 138.587 63.621 136.697ZM326.619 136.697C326.619 134.806 328.151 133.274 330.042 133.274 331.932 133.274 333.464 134.806 333.464 136.697 333.464 138.587 331.932 140.119 330.042 140.119 328.151 140.119 326.619 138.587 326.619 136.697Z" fill="#454545" data-fill-palette-color="primary"></path></svg></g></svg></g></svg></g><g></g></svg></g><defs></defs></svg><rect width="395.52" height="279.72" fill="none" stroke="none" visibility="hidden"></rect></g></svg></g></svg>